# xmcd
#
# Track frame offsets: 
#        150
#        16611
#        33809
#        52695
#        70254
#        85501
#        106990
#        122156
#        138162
#        155854
#
# Disc length: 2336 seconds
#
# Revision: 5
# Processed by: cddbd v1.5.2PL0 Copyright (c) Steve Scherf et al.
# Submitted via: ExactAudioCopy v1.0b3
#
DISCID=6f091e0a
DTITLE=松田聖子 - SILHOUETTE 〜シルエット〜
DYEAR=1981
DGENRE=Pop
TTITLE0=Summer Beach
TTITLE1=白い貝のブローチ
TTITLE2=Sailing
TTITLE3=ナイーブ～傷つきやすい午後～　
TTITLE4=チェリーブラッサム
TTITLE5=あ・な・たの手紙
TTITLE6=Je t?aime
TTITLE7=夏の扉　
TTITLE8=花びら
TTITLE9=愛の神話
EXTD=
EXTT0=
EXTT1=
EXTT2=
EXTT3=
EXTT4=
EXTT5=
EXTT6=
EXTT7=
EXTT8=
EXTT9=
PLAYORDER=
